<svg xmlns="http://www.w3.org/2000/svg" width="10.378" height="8.429" viewBox="0 0 10.378 8.429">
  <path id="Icon_awesome-twitter" data-name="Icon awesome-twitter" d="M9.311,5.481c.007.092.007.184.007.277A6.01,6.01,0,0,1,3.266,11.81,6.011,6.011,0,0,1,0,10.855a4.4,4.4,0,0,0,.514.026,4.26,4.26,0,0,0,2.641-.909A2.131,2.131,0,0,1,1.166,8.5a2.682,2.682,0,0,0,.4.033,2.25,2.25,0,0,0,.56-.072A2.127,2.127,0,0,1,.421,6.37V6.344a2.142,2.142,0,0,0,.961.27A2.13,2.13,0,0,1,.724,3.769,6.046,6.046,0,0,0,5.11,6a2.4,2.4,0,0,1-.053-.487A2.129,2.129,0,0,1,8.738,4.052a4.188,4.188,0,0,0,1.35-.514,2.121,2.121,0,0,1-.935,1.172,4.264,4.264,0,0,0,1.225-.329,4.572,4.572,0,0,1-1.067,1.1Z" transform="translate(0 -3.381)" fill="#fff"/>
</svg>
