<svg xmlns="http://www.w3.org/2000/svg" width="83.355" height="84" viewBox="0 0 83.355 84">
  <g id="Layer_2" transform="translate(-207.518 -87.471)">
    <path id="Path_76" data-name="Path 76" d="M285.078,107.625A41.264,41.264,0,0,0,227.507,93.9a43.085,43.085,0,0,0-19.95,38,41.943,41.943,0,0,0,6.65,20.9,41.177,41.177,0,0,0,37.43,18.573A42.153,42.153,0,0,0,272.3,164.1a43.484,43.484,0,0,0,14.345-16.815,42.019,42.019,0,0,0-1.568-39.663M209.5,124.345a23.043,23.043,0,0,1,.38-2.613,27.759,27.759,0,0,1,.617-2.708c.095-.428.237-.855.333-1.283.047-.19.142-.428.19-.617a3.034,3.034,0,0,0,.1-.332c0-.048.047-.1.047-.19v-.047c.285-.855.617-1.71.95-2.565.333-.808.665-1.615,1.045-2.375.048-.047.048-.142.1-.142l.142-.285.285-.57c.238-.428.428-.808.665-1.235.238-.38.428-.76.665-1.092.095-.19.237-.38.332-.57a.994.994,0,0,1,.19-.285.633.633,0,0,1,.142-.237c.475-.712,1-1.425,1.52-2.09a22.905,22.905,0,0,1,1.71-2.043l.142-.142a.655.655,0,0,0,.143-.19c.142-.143.285-.332.427-.475.333-.333.665-.665.95-1a35.228,35.228,0,0,1,3.9-3.372,40.343,40.343,0,0,1,9.215-5.225c.665-.285,1.33-.523,2.043-.76a40.2,40.2,0,0,0-7.458,3.658,40.766,40.766,0,0,0-18.858,36.005,34.218,34.218,0,0,0,.522,4.893A41.369,41.369,0,0,1,209.5,124.345Zm37.573,43.415a38.809,38.809,0,0,1-19.618-6.793A39.22,39.22,0,0,1,214.3,145.483a38.758,38.758,0,0,1-3.42-20.805,36.939,36.939,0,0,1,2.565-10.07,36.081,36.081,0,0,1,5.035-8.693A38.218,38.218,0,0,1,234.537,93.8a39,39,0,0,1,51.206,23.418,40.474,40.474,0,0,1,2.137,12.588,37.766,37.766,0,0,1-20.14,33.535A39.325,39.325,0,0,1,247.077,167.761Zm41.468-30.875-.285,1.425c-.19.9-.427,1.8-.665,2.66-.142.427-.237.855-.38,1.282v.095a3.015,3.015,0,0,0-.095.333,4.167,4.167,0,0,0-.238.712c-.285.855-.665,1.71-1,2.518-.19.38-.333.808-.523,1.188-.048.048-.048.095-.1.142a.7.7,0,0,0-.095.19c-.1.238-.237.427-.332.665-.428.807-.855,1.568-1.33,2.327-.237.38-.475.713-.712,1.093,0,0-.1.095-.1.142a.247.247,0,0,0-.095.19c-.143.19-.285.428-.428.617-.523.713-1.045,1.425-1.615,2.138-.285.333-.57.665-.807,1-.048.095-.142.142-.19.237l-.142.143c-.142.143-.285.333-.427.475-.617.665-1.235,1.282-1.9,1.9s-1.33,1.188-2,1.757c-.047.048-.142.095-.19.143l-.142.142a3.627,3.627,0,0,1-.523.38c-.38.285-.76.57-1.14.807a45.609,45.609,0,0,1-4.56,2.85,36.132,36.132,0,0,1-5.747,2.47,38.288,38.288,0,0,0,8.74-4.56,41.137,41.137,0,0,0,13.538-15.818,39.754,39.754,0,0,0,3.99-17.48,38.16,38.16,0,0,0-.618-6.983,40.862,40.862,0,0,1,.808,7.933,44.59,44.59,0,0,1-.38,5.653A4.365,4.365,0,0,0,288.545,136.885Z" transform="translate(0)" fill="#fcc00d"/>
    <path id="Path_77" data-name="Path 77" d="M284.683,143.435a8.072,8.072,0,0,0,.333-2.423,8.513,8.513,0,1,0-2.423,5.938,9.878,9.878,0,0,0,2.09-3.515M276.56,123.2a17.819,17.819,0,0,1,17.813,17.813,18.753,18.753,0,0,1-.855,5.177c-1.187,3.943-5.462,10.26-7.79,14.108l-9.31,15.485H265.493l10.165-16.91a17.847,17.847,0,0,1,.9-35.673Z" transform="translate(-26.87 -18.757)" fill="#1a1a1a" fill-rule="evenodd"/>
  </g>
</svg>
